<?xml version="1.0" encoding="UTF-8"?>
<svg version="1.1" xmlns="http://www.w3.org/2000/svg" width="413" height="315">
<path d="M0 0 C136.29 0 272.58 0 413 0 C413 103.95 413 207.9 413 315 C276.71 315 140.42 315 0 315 C0 211.05 0 107.1 0 0 Z " fill="#525b4a" transform="translate(0,0)"/>
<path d="M0 0 C7.19964159 4.94093051 9.51721645 10.52430818 11.29199219 18.76855469 C13.33613025 28.16984636 16.80811835 34.02718509 23.8515625 40.7734375 C27.26866155 44.22292611 28.43958636 46.57522914 28.6875 51.5 C28.33452555 56.98236916 27.06840062 60.3135012 23 64 C16.36845075 68.13099055 9.66652155 70.00759312 2.0625 71.4375 C-6.20792437 73.15166327 -12.8640516 75.3719316 -20 80 C-26.43519807 83.81123359 -32.39736154 86.91876113 -40 85 C-45.28815937 82.06122413 -49.34470537 78.49033229 -52 73 C-53.44447559 62.73289412 -51.13324244 55.70801833 -45.0625 47.625 C-38.37438674 38.65014214 -36.75296941 31.64546946 -36.26953125 20.50390625 C-35.82083692 14.67087992 -34.14304621 9.32317865 -30 5 C-29.34 5 -28.68 5 -28 5 C-27.67 4.01 -27.34 3.02 -27 2 C-25.29296875 0.8671875 -25.29296875 0.8671875 -23.1875 -0.125 C-22.50042969 -0.45757812 -21.81335938 -0.79015625 -21.10546875 -1.1328125 C-13.69728766 -4.1840485 -7.02667009 -3.77358209 0 0 Z " fill="#EC1B24" transform="translate(178,64)"/>
<path d="M0 0 C7.05484699 3.61345821 11.37319795 9.90430612 15.55078125 16.41796875 C20.32460089 23.24527178 25.59696296 26.18074798 32.90356445 29.73266602 C38.4019761 32.47301624 42.30972648 35.28316876 45 41 C47.1825979 47.54779371 47.301734 56.22326702 44.375 62.5625 C41.64487958 67.09003066 38.06346181 70.3121794 33 72 C31.37917052 72.07947316 29.75558665 72.10834011 28.1328125 72.10546875 C13.27703491 72.21696057 13.27703491 72.21696057 -0.28125 77.72265625 C-3.72686877 79.341503 -6.23514015 79.34949933 -10 79 C-14.4365512 75.6983805 -17.48325037 71.30862372 -19 66 C-19.52882316 59.50722679 -19.27655713 53.37265427 -18 47 C-17.64144544 40.71278756 -17.73542874 34.61685887 -19 28.4375 C-21.809432 14.16142332 -21.809432 14.16142332 -18.609375 8.5703125 C-13.60535266 2.63075555 -8.1792455 -1.82936914 0 0 Z " fill="#026737" transform="translate(77,35)"/>
<path d="M0 0 C5.28869619 2.75161442 9.7975438 6.42992721 14.3203125 10.28515625 C19.24150105 14.02494659 23.53818704 15.49871453 29.65234375 16.15234375 C37.9339016 17.22571742 44.22879725 18.40411153 49.77734375 25.15234375 C50.24398437 25.69503906 50.710625 26.23773438 51.19140625 26.796875 C55.6871923 32.76195426 55.76490603 38.91637336 54.77734375 46.15234375 C53.10411685 51.53658225 49.69585757 54.54842467 44.77734375 57.15234375 C40.63256533 58.61520672 36.53853839 59.34773863 32.21484375 60.02734375 C26.5213582 61.04210104 23.0727165 63.07579058 18.76953125 66.96875 C14.0476923 71.04071913 10.58760711 73.31086381 4.20703125 72.84375 C-1.18799904 71.30850826 -4.59318236 67.31467876 -7.87109375 62.96484375 C-9.70593448 59.14667807 -9.95705113 55.51647351 -10.41015625 51.33984375 C-11.52787277 42.74266453 -14.1831598 36.00372108 -18.3828125 28.47265625 C-22.04035237 21.87200044 -23.09715936 16.67971227 -22.22265625 9.15234375 C-20.20053098 4.70366815 -17.6084145 2.07768961 -13.203125 -0.1484375 C-8.66274909 -1.7514499 -4.50270267 -1.71719944 0 0 Z " fill="#0171BD" transform="translate(40.22265625,120.84765625)"/>
<path d="M0 0 C15.51861455 13.69289519 26.38292149 43.17059747 29 63 C29.91600329 80.15744621 29.91600329 80.15744621 26 87 C25.52433594 87.87011719 25.04867187 88.74023438 24.55859375 89.63671875 C14.79091333 106.24857431 -2.22787721 113.44376641 -19.08007812 121.12451172 C-20.78066549 121.89998302 -22.47662862 122.68557757 -24.171875 123.47265625 C-28.44681546 125.44709909 -32.70079725 127.26250344 -37.125 128.875 C-46.33298754 132.54941156 -51.91315354 138.04177852 -56 147 C-56.33 147.66 -56.66 148.32 -57 149 C-57.7365152 160.1926745 -57.7365152 160.1926745 -54.8671875 170.83984375 C-50.66060234 181.31840949 -48.28670744 196.20975563 -52.625 206.9375 C-58.3127112 217.60195851 -67.60146875 223.50349356 -79 227 C-86.18475811 229.06183288 -93.11631778 229.35006024 -100.5625 229.3125 C-101.71419678 229.30758545 -102.86589355 229.3026709 -104.05249023 229.29760742 C-113.04646459 229.17452335 -121.26852708 228.27055215 -130 226 C-130.65129883 225.8443457 -131.30259766 225.68869141 -131.97363281 225.52832031 C-147.62175707 221.7646572 -172.70153754 213.94769369 -182 200 C-178.24688844 201.3678306 -175.13275473 203.10063164 -171.8125 205.3125 C-151.93000111 218.07527117 -130.21893515 223.20968549 -106.75 223.375 C-105.4825293 223.38901855 -104.21505859 223.40303711 -102.90917969 223.41748047 C-89.18567143 223.34755405 -75.86887202 220.52948955 -65.0625 211.5625 C-57.1281281 201.704644 -55.65034817 193.59455583 -57 181 C-58.02356708 175.82150877 -59.37891818 170.74053257 -60.86547852 165.67700195 C-63.34484714 156.96644316 -64.75555846 148.27328363 -61 139.75 C-52.83452082 125.76159715 -38.9403137 121.39247909 -24.6953125 115.30078125 C-1.07686191 105.80543706 -1.07686191 105.80543706 17.1875 88.75 C17.65542969 88.06421875 18.12335938 87.3784375 18.60546875 86.671875 C22.17674174 79.82943599 23.56000428 73.30785592 23.5 65.625 C23.49500488 64.76430908 23.49000977 63.90361816 23.48486328 63.0168457 C23.2351094 53.57356519 20.99673894 44.91261201 18 36 C17.77538086 35.32598145 17.55076172 34.65196289 17.31933594 33.95751953 C13.60845726 23.15167849 8.20989666 12.77401575 1.23046875 3.69921875 C0 2 0 2 0 0 Z " fill="#0F0F0F" transform="translate(227,54)"/>
<path d="M0 0 C3.75311156 1.3678306 6.86724527 3.10063164 10.1875 5.3125 C30.06999889 18.07527117 51.78106485 23.20968549 75.25 23.375 C76.5174707 23.38901855 77.78494141 23.40303711 79.09082031 23.41748047 C88.00646836 23.3720519 96.41448753 22.45099616 104.64941406 18.83740234 C107 18 107 18 110 19 C109.67 19.66 109.34 20.32 109 21 C109.66 21 110.32 21 111 21 C111 21.99 111 22.98 111 24 C101.04144191 27.98342324 92.18387219 29.36670716 81.4375 29.3125 C80.28580322 29.30758545 79.13410645 29.3026709 77.94750977 29.29760742 C68.95353541 29.17452335 60.73147292 28.27055215 52 26 C51.34870117 25.8443457 50.69740234 25.68869141 50.02636719 25.52832031 C34.37824293 21.7646572 9.29846246 13.94769369 0 0 Z " fill="#1F1F1F" transform="translate(45,254)"/>
<path d="M0 0 C2.0625 1.875 2.0625 1.875 2.5625 4.75 C1.77587613 9.66639917 0.15429095 11.9817165 -3.6875 15.125 C-6.9375 16.875 -6.9375 16.875 -13.9375 17.875 C-13.9375 22.825 -13.9375 27.775 -13.9375 32.875 C-15.9175 33.37 -15.9175 33.37 -17.9375 33.875 C-17.9375 22.655 -17.9375 11.435 -17.9375 -0.125 C-4.66001309 -1.78468586 -4.66001309 -1.78468586 0 0 Z " fill="#0E0E0E" transform="translate(304.9375,203.125)"/>
<path d="M0 0 C2.25 0.4375 2.25 0.4375 5 2 C6.97508248 5.3380787 9 9.06212362 9 13 C10.65 13 12.3 13 14 13 C14.33 14.32 14.66 15.64 15 17 C13.68 17 12.36 17 11 17 C11.30035156 17.60328125 11.60070312 18.2065625 11.91015625 18.828125 C12.29042969 19.62734375 12.67070312 20.4265625 13.0625 21.25 C13.44535156 22.03890625 13.82820313 22.8278125 14.22265625 23.640625 C15.08564091 26.25993522 14.93045933 27.44855176 14 30 C11 29 11 29 9.83203125 27.2578125 C9.32736328 26.20207031 9.32736328 26.20207031 8.8125 25.125 C8.46832031 24.42632812 8.12414062 23.72765625 7.76953125 23.0078125 C7 21 7 21 7 18 C6.113125 18.33 5.22625 18.66 4.3125 19 C1.29076653 19.91222143 -0.88373706 20.18330958 -4 20 C-4.12375 20.7425 -4.2475 21.485 -4.375 22.25 C-4.95486701 24.80141485 -5.73708739 26.7267573 -7 29 C-7.99 29 -8.98 29 -10 29 C-9.46451953 23.16848706 -8.25895092 18.25147246 -6.125 12.8125 C-5.86847656 12.12736328 -5.61195313 11.44222656 -5.34765625 10.73632812 C-3.88202873 6.91023016 -2.24003652 3.45394852 0 0 Z " fill="#1C1C1C" transform="translate(196,192)"/>
<path d="M0 0 C15.51861455 13.69289519 26.38292149 43.17059747 29 63 C29.58695507 73.99412 29.23164774 82.50415582 23 92 C22.13375 91.443125 22.13375 91.443125 21.25 90.875 C20.5075 90.58625 19.765 90.2975 19 90 C16.87269715 90.89681416 16.87269715 90.89681416 15 92 C15.61488281 90.91332031 15.61488281 90.91332031 16.2421875 89.8046875 C16.78101563 88.83789062 17.31984375 87.87109375 17.875 86.875 C18.40867188 85.92367187 18.94234375 84.97234375 19.4921875 83.9921875 C26.6608902 69.76621271 23.47251972 52.74490992 18.73535156 38.18701172 C18.49268555 37.46529785 18.25001953 36.74358398 18 36 C17.77538086 35.32598145 17.55076172 34.65196289 17.31933594 33.95751953 C13.60845726 23.15167849 8.20989666 12.77401575 1.23046875 3.69921875 C0 2 0 2 0 0 Z " fill="#181818" transform="translate(227,54)"/>
<path d="M0 0 C1.703125 1.0078125 1.703125 1.0078125 3 3 C3.21714241 5.81127043 3.28284276 8.3883345 3.1875 11.1875 C3.16719727 12.31188477 3.16719727 12.31188477 3.14648438 13.45898438 C3.11118539 15.30629767 3.05737917 17.15324066 3 19 C2.01 19 1.02 19 0 19 C0 17.35 0 15.7 0 14 C-0.66 14 -1.32 14 -2 14 C-2 14.66 -2 15.32 -2 16 C-6.28951387 19.48523002 -9.7087241 19.43371114 -15 19 C-17 17 -17 17 -17.5 13.3125 C-17.40294449 8.87221023 -15.63828847 6.63248495 -12.703125 3.4453125 C-8.65176857 0.0072348 -5.28805991 -0.48073272 0 0 Z " fill="#1B1B1B" transform="translate(328,202)"/>
<path d="M0 0 C5.03211389 3.01926834 8.6385801 7.06444946 10.125 12.875 C10.90928029 19.25783501 10.10429996 23.77955493 6.125 28.875 C4.22001835 31.07156048 2.30814918 32.92914964 0.125 34.875 C-0.535 34.875 -1.195 34.875 -1.875 34.875 C0 29.125 0 29.125 1.125 26.875 C1.30241233 24.25453265 1.40247251 21.68489117 1.4375 19.0625 C1.48100586 17.99418945 1.48100586 17.99418945 1.52539062 16.90429688 C1.57011179 13.18555992 1.2710538 11.10273461 -0.75390625 7.9453125 C-4.22271375 4.55955196 -6.83329921 3.97917008 -11.625 3.5 C-16.55206088 3.59402788 -20.56743488 5.64144772 -24.875 7.875 C-20.63654329 -1.99364546 -9.30366419 -3.36472387 0 0 Z " fill="#181818" transform="translate(142.875,218.125)"/>
<path d="M0 0 C3.375 1.6875 3.375 1.6875 6 4 C6.5 6.625 6.5 6.625 6 9 C3.22957891 11.77042109 1.23466195 11.39796106 -2.625 11.625 C-3.81351562 11.69976562 -5.00203125 11.77453125 -6.2265625 11.8515625 C-7.14179688 11.90054688 -8.05703125 11.94953125 -9 12 C-9 12.99 -9 13.98 -9 15 C-3.98952275 15.16984669 -0.61361192 15.10907974 4 13 C4.99 13 5.98 13 7 13 C6.6334837 15.49231085 6.41321026 16.67346311 4.3984375 18.265625 C-0.21243349 20.50875143 -3.76781931 21.78976312 -9 21 C-12.75514634 18.9591596 -13.77457968 17.71604102 -15.0625 13.625 C-14.96631551 8.04629972 -12.44994745 5.44994745 -8.625 1.625 C-5.35702494 -0.39803218 -3.78534995 -0.61801632 0 0 Z " fill="#151515" transform="translate(379,201)"/>
<path d="M0 0 C9.91668739 -0.61551853 9.91668739 -0.61551853 13.75 1.5625 C15.58961036 5.14974021 15.15739574 7.18740226 14 11 C10.67447217 14.61057307 7.82978133 15.55071802 3 16 C2.67 18.31 2.34 20.62 2 23 C0.68 23 -0.64 23 -2 23 C-1.85823579 20.29139876 -1.71171784 17.58319248 -1.5625 14.875 C-1.50352539 13.73417969 -1.50352539 13.73417969 -1.44335938 12.5703125 C-1.20490998 8.31490797 -0.79769763 4.19629174 0 0 Z " fill="#151515" transform="translate(297,166)"/>
<path d="M0 0 C2 2 2 2 3.2734375 5.23046875 C4.97425522 9.35842825 7.52845869 12.15547937 10.625 15.3125 C15.89366756 20.80407272 17.4060084 23.46802133 17.35546875 31.16015625 C16.79224172 35.65978314 15.07215938 37.71350392 12 41 C10.515 41.495 10.515 41.495 9 42 C9 41.34 9 40.68 9 40 C8.360625 39.773125 7.72125 39.54625 7.0625 39.3125 C5 38 5 38 4.0625 35.5625 C4 33 4 33 5.3125 31.375 C5.869375 30.92125 6.42625 30.4675 7 30 C9.1519437 26.77208445 9.20086443 25.71599191 9 22 C9.66 22 10.32 22 11 22 C10.67 20.68 10.34 19.36 10 18 C8.68 18 7.36 18 6 18 C6 16.68 6 15.36 6 14 C5.34 14 4.68 14 4 14 C3.67 12.02 3.34 10.04 3 8 C2.34 8 1.68 8 1 8 C0.67 5.36 0.34 2.72 0 0 Z " fill="#E81E27" transform="translate(189,87)"/>
<path d="M0 0 C0.99 0 1.98 0 3 0 C3.79917307 18.2921835 3.79917307 18.2921835 -1 24 C-5.39140202 28.64971979 -9.55153714 32.67723839 -16 34 C-16 33.34 -16 32.68 -16 32 C-16.66 32 -17.32 32 -18 32 C-18 30.68 -18 29.36 -18 28 C-16.2421875 26.61328125 -16.2421875 26.61328125 -13.875 25.3125 C-6.20288298 20.46314302 -3.17652055 14.67545788 -1.125 5.9375 C-0.73125325 3.96197749 -0.34954489 1.98382057 0 0 Z " fill="#0E0E0E" transform="translate(172,243)"/>
<path d="M0 0 C0.33 1.65 0.66 3.3 1 5 C0.01 5.33 -0.98 5.66 -2 6 C-2 5.34 -2 4.68 -2 4 C-8.42412283 5.62817419 -8.42412283 5.62817419 -13.109375 9.82421875 C-13.7279391 11.9466284 -13.7279391 11.9466284 -14 15 C-8.00032762 15.31577223 -4.55385762 14.51495439 1 12 C3.9375 11.8125 3.9375 11.8125 6 12 C6 13.32 6 14.64 6 16 C-0.72212925 18.85181241 -7.71808812 20.33835428 -15 19 C-17.87576897 16.71487718 -18.86553098 15.70222708 -19.5625 12.0625 C-18.67259347 7.21745335 -15.53133159 5.2610966 -11.875 2.25 C-8.00554232 -0.32963845 -4.51318043 -0.08515435 0 0 Z " fill="#151515" transform="translate(354,202)"/>
<path d="M0 0 C0.91007812 0.00902344 1.82015625 0.01804688 2.7578125 0.02734375 C3.80582031 0.04474609 3.80582031 0.04474609 4.875 0.0625 C4.875 1.3825 4.875 2.7025 4.875 4.0625 C3.82699219 4.15337891 3.82699219 4.15337891 2.7578125 4.24609375 C1.84773438 4.32988281 0.93765625 4.41367188 0 4.5 C-0.90492188 4.58121094 -1.80984375 4.66242188 -2.7421875 4.74609375 C-5.13610861 4.93239285 -5.13610861 4.93239285 -7.125 6.0625 C-7.455 7.0525 -7.785 8.0425 -8.125 9.0625 C-7.27808594 8.81886719 -7.27808594 8.81886719 -6.4140625 8.5703125 C-4.03691379 8.04295869 -1.93156882 7.92936766 0.5 7.9375 C1.27601563 7.93492187 2.05203125 7.93234375 2.8515625 7.9296875 C4.875 8.0625 4.875 8.0625 6.875 9.0625 C6.55670172 12.17651817 6.288949 13.66822213 3.984375 15.86328125 C3.20578125 16.36214844 2.4271875 16.86101562 1.625 17.375 C0.85671875 17.88675781 0.0884375 18.39851563 -0.703125 18.92578125 C-3.39421997 20.18885969 -5.18868067 20.28636832 -8.125 20.0625 C-8.125 19.0725 -8.125 18.0825 -8.125 17.0625 C-5.485 15.7425 -2.845 14.4225 -0.125 13.0625 C-0.81207031 13.09730469 -1.49914062 13.13210937 -2.20703125 13.16796875 C-3.10808594 13.19503906 -4.00914062 13.22210938 -4.9375 13.25 C-5.83082031 13.28480469 -6.72414063 13.31960937 -7.64453125 13.35546875 C-10.125 13.0625 -10.125 13.0625 -11.94921875 11.703125 C-13.125 10.0625 -13.125 10.0625 -13.125 7.625 C-10.80686972 1.68479116 -5.8817837 -0.07540748 0 0 Z " fill="#191919" transform="translate(274.125,201.9375)"/>
<path d="M0 0 C1.875 1.5625 1.875 1.5625 3 4 C3.20802274 8.05228295 2.5910284 11.09072554 0.375 14.5 C-2.95549387 16.60346982 -5.14117758 16.56128326 -9 16 C-11.6125869 13.80879809 -11.94480862 12.43233248 -12.375 9.0625 C-11.94784142 5.57403822 -11.15059932 3.76505626 -9 1 C-5.84484361 -1.31378135 -3.65276999 -1.31125077 0 0 Z " fill="#151515" transform="translate(324,173)"/>
<path d="M0 0 C1.32 0 2.64 0 4 0 C5.20272819 2.40545638 5.10071472 3.94996953 5.0625 6.625 C5.05347656 7.44226563 5.04445312 8.25953125 5.03515625 9.1015625 C5.02355469 9.72804687 5.01195312 10.35453125 5 11 C6.98 11 8.96 11 11 11 C11 12.32 11 13.64 11 15 C9.02 15 7.04 15 5 15 C5 19.62 5 24.24 5 29 C3.68 28.67 2.36 28.34 1 28 C-0.26237731 25.47524538 -0.09856404 23.68799534 -0.0625 20.875 C-0.05347656 19.96492188 -0.04445312 19.05484375 -0.03515625 18.1171875 C-0.02355469 17.41851562 -0.01195312 16.71984375 0 16 C-1.98 16 -3.96 16 -6 16 C-6 14.68 -6 13.36 -6 12 C-4.02 12 -2.04 12 0 12 C0 8.04 0 4.08 0 0 Z " fill="#252525" transform="translate(247,193)"/>
<path d="M0 0 C1.32 0.33 2.64 0.66 4 1 C4 1.99 4 2.98 4 4 C5.7015625 3.01 5.7015625 3.01 7.4375 2 C12.02431643 -0.3303325 15.94747199 -0.421044 21 0 C21 1.65 21 3.3 21 5 C20.25234375 5.03738281 19.5046875 5.07476562 18.734375 5.11328125 C17.74953125 5.17902344 16.7646875 5.24476563 15.75 5.3125 C14.77546875 5.37050781 13.8009375 5.42851562 12.796875 5.48828125 C9.6312102 6.06747411 8.1727849 6.62223539 6 9 C5.51659568 11.7386225 5.51659568 11.7386225 5.75 14.6875 C5.78609375 15.68136719 5.8221875 16.67523438 5.859375 17.69921875 C5.90578125 18.45847656 5.9521875 19.21773437 6 20 C4.68 20.33 3.36 20.66 2 21 C-0.62096065 14.11997829 -0.18170362 7.27823961 0 0 Z " fill="#121212" transform="translate(216,201)"/>
<path d="M0 0 C3.75311156 1.3678306 6.86724527 3.10063164 10.1875 5.3125 C25.54830171 15.17274937 42.07081479 20.18081816 60 23 C62.00012217 23.3325995 64.00016604 23.66567193 66 24 C65.505 25.485 65.505 25.485 65 27 C58.95509178 27.22668406 53.8243934 26.52421383 48 24.9375 C47.1747583 24.71489502 46.3495166 24.49229004 45.49926758 24.26293945 C29.64289262 19.79671956 12.34623099 12.08093403 0 1 C0 0.67 0 0.34 0 0 Z " fill="#171717" transform="translate(45,254)"/>
<path d="M0 0 C1.32 0 2.64 0 4 0 C3.67 4.29 3.34 8.58 3 13 C3.7425 12.154375 4.485 11.30875 5.25 10.4375 C6.61125 9.2309375 6.61125 9.2309375 8 8 C10.3125 8.1875 10.3125 8.1875 12 9 C11.319375 9.721875 10.63875 10.44375 9.9375 11.1875 C7.73490247 13.77505549 7.73490247 13.77505549 8.125 16.5 C9.01247155 19.035633 9.94165563 21.53052981 11 24 C7.32579134 23.69381595 6.21864487 23.24228216 3.6875 20.4375 C3.130625 19.633125 2.57375 18.82875 2 18 C1.67 19.98 1.34 21.96 1 24 C-0.32 24 -1.64 24 -3 24 C-1.47016275 2.9403255 -1.47016275 2.9403255 0 0 Z " fill="#151515" transform="translate(347,165)"/>
<path d="M0 0 C2.375 0.625 2.375 0.625 5 2 C6.3125 5.125 6.3125 5.125 7 8 C5.68 8.33 4.36 8.66 3 9 C3 8.34 3 7.68 3 7 C2.34 7 1.68 7 1 7 C0.01 10.3 -0.98 13.6 -2 17 C-1.34 17.33 -0.68 17.66 0 18 C-0.33 18.66 -0.66 19.32 -1 20 C-1.99 20 -2.98 20 -4 20 C-4.12375 20.7425 -4.2475 21.485 -4.375 22.25 C-4.95486701 24.80141485 -5.73708739 26.7267573 -7 29 C-7.99 29 -8.98 29 -10 29 C-9.46451953 23.16848706 -8.25895092 18.25147246 -6.125 12.8125 C-5.86847656 12.12736328 -5.61195313 11.44222656 -5.34765625 10.73632812 C-3.88202873 6.91023016 -2.24003652 3.45394852 0 0 Z " fill="#131313" transform="translate(196,192)"/>
<path d="M0 0 C1 1.9375 1 1.9375 1 4 C0 5.6875 0 5.6875 -2 7 C-5.6875 7.6875 -5.6875 7.6875 -9 8 C-8.67 8.99 -8.34 9.98 -8 11 C-7.236875 11 -6.47375 11 -5.6875 11 C-3.79166667 11 -1.89583333 11 0 11 C-1 14 -1 14 -3 15 C-9.18035883 15.44948064 -9.18035883 15.44948064 -11.9375 13.9375 C-13.62414729 10.86184905 -13.35598975 8.4412342 -13 5 C-11.6304362 1.75629625 -10.63672073 0.3853836 -7.625 -1.4375 C-4.3239792 -2.1448616 -2.86634719 -1.75165662 0 0 Z " fill="#161616" transform="translate(372,174)"/>
<path d="M0 0 C0.33 0 0.66 0 1 0 C1.03738281 0.7734375 1.07476562 1.546875 1.11328125 2.34375 C1.47212345 9.23858659 1.47212345 9.23858659 3.375 15.8125 C7.83910534 26.43399202 8.47199344 37.65467614 8 49 C7.67 49 7.34 49 7 49 C7 44.71 7 40.42 7 36 C6.01 36 5.02 36 4 36 C3.67 37.32 3.34 38.64 3 40 C2.90203125 39.030625 2.8040625 38.06125 2.703125 37.0625 C1.81399426 28.91162211 0.49620398 21.12166918 -1.76660156 13.23046875 C-2.7081967 9.8274496 -3.3296451 7.35375453 -2 4 C-1.67 4.33 -1.34 4.66 -1 5 C-0.67 3.35 -0.34 1.7 0 0 Z " fill="#222222" transform="translate(168,207)"/>
<path d="M0 0 C0.33 0.66 0.66 1.32 1 2 C-0.2065625 3.11375 -0.2065625 3.11375 -1.4375 4.25 C-4.30056322 7.22179051 -4.30056322 7.22179051 -5 11 C-4.79375 11.721875 -4.5875 12.44375 -4.375 13.1875 C-3.88343565 16.87423266 -4.96872996 19.32814162 -6.23046875 22.7734375 C-7.16606705 25.48049858 -7.63635704 28.1635849 -8 31 C-9.32 30.34 -10.64 29.68 -12 29 C-12.66141176 20.44574124 -11.96725585 14.14350408 -7 7 C-4.81178797 4.48174773 -2.51565553 2.18941778 0 0 Z " fill="#161616" transform="translate(176,182)"/>
<path d="M0 0 C0.99 0 1.98 0 3 0 C3.495 6.93 3.495 6.93 4 14 C3.01 14 2.02 14 1 14 C1 12.35 1 10.7 1 9 C0.34 9 -0.32 9 -1 9 C-1 9.66 -1 10.32 -1 11 C-5.28951387 14.48523002 -8.7087241 14.43371114 -14 14 C-16 12 -16 12 -16.125 8.875 C-16.08375 7.92625 -16.0425 6.9775 -16 6 C-15.01 6 -14.02 6 -13 6 C-12.67 6.99 -12.34 7.98 -12 9 C-8.46835953 9.32105822 -6.64284949 9.48213712 -3.75 7.3125 C-1.95581983 4.94161906 -0.93699029 2.81097087 0 0 Z " fill="#0E0E0E" transform="translate(327,207)"/>
<path d="M0 0 C0.66 0.66 1.32 1.32 2 2 C1.9375 3.875 1.9375 3.875 1 6 C-2.68143669 9.38294183 -5.91542892 12 -11 12 C-11.08131463 10.56344146 -11.13933559 9.1255517 -11.1875 7.6875 C-11.22230469 6.88699219 -11.25710938 6.08648437 -11.29296875 5.26171875 C-11 3 -11 3 -9.7421875 1.2265625 C-6.58806815 -0.99405068 -3.76082114 -0.29847787 0 0 Z " fill="#525b4a" transform="translate(301,206)"/>
<path d="M0 0 C5.04863033 1.29151009 7.6349075 3.03091654 11 7 C11.70382813 7.81597656 11.70382813 7.81597656 12.421875 8.6484375 C16.90584434 14.61866634 16.98748438 20.76460043 16 28 C14.3267731 33.3842385 10.91851382 36.39608092 6 39 C-0.4259613 41.36055721 -7.24675727 42.04540629 -14 43 C-14 42.34 -14 41.68 -14 41 C-13.45061768 40.89977539 -12.90123535 40.79955078 -12.33520508 40.69628906 C-9.82454239 40.22936139 -7.318773 39.73992061 -4.8125 39.25 C-3.94818359 39.09273437 -3.08386719 38.93546875 -2.19335938 38.7734375 C4.47271174 37.44533138 8.08167023 35.48864403 12.3125 30 C15.01367526 25.04242131 14.32338041 19.47051868 14 14 C13.01 14.33 12.02 14.66 11 15 C10.34 12.03 9.68 9.06 9 6 C7.68 5.67 6.36 5.34 5 5 C5 4.34 5 3.68 5 3 C3.68 3 2.36 3 1 3 C0.67 2.01 0.34 1.02 0 0 Z " fill="#2371A3" transform="translate(79,139)"/>
<path d="M0 0 C0.99 0 1.98 0 3 0 C3 1.65 3 3.3 3 5 C4.32 5.33 5.64 5.66 7 6 C6.67 6.66 6.34 7.32 6 8 C4.68 8 3.36 8 2 8 C1.67 11.3 1.34 14.6 1 18 C2.32 18 3.64 18 5 18 C4.67 18.99 4.34 19.98 4 21 C1.625 21.125 1.625 21.125 -1 21 C-3 19 -3 19 -3.16015625 16.50390625 C-3.12792969 15.53324219 -3.09570312 14.56257812 -3.0625 13.5625 C-2.96145876 10.263284 -2.94796368 8.15610895 -4 5 C-3.01 5 -2.02 5 -1 5 C-0.67 3.35 -0.34 1.7 0 0 Z " fill="#151515" transform="translate(379,168)"/>
<path d="M0 0 C0 0.99 0 1.98 0 3 C-4.33085971 4.29925791 -8.51474352 5.343621 -13 6 C-13.433125 7.6396875 -13.433125 7.6396875 -13.875 9.3125 C-15 13 -15 13 -17 16 C-17.45139459 18.0492094 -17.45139459 18.0492094 -17.625 20.1875 C-17.74875 21.445625 -17.8725 22.70375 -18 24 C-18.66 23.67 -19.32 23.34 -20 23 C-21.06082551 12.89689986 -21.06082551 12.89689986 -18.6171875 8.52734375 C-12.92947995 1.94092916 -8.65263498 -0.43996449 0 0 Z " fill="#256F4D" transform="translate(77,35)"/>
<path d="M0 0 C0.61875 0.639375 1.2375 1.27875 1.875 1.9375 C5.1892693 5.15429079 7.37925192 5.20954029 11.96875 5.16796875 C14.57106499 4.95277732 16.63838074 4.07959738 19 3 C19.99 3 20.98 3 22 3 C21.6334837 5.49231085 21.41321026 6.67346311 19.3984375 8.265625 C14.78756651 10.50875143 11.23218069 11.78976312 6 11 C3.125 9.4375 3.125 9.4375 1 7 C0.1875 3.25 0.1875 3.25 0 0 Z " fill="#0E0E0E" transform="translate(364,211)"/>
<path d="M0 0 C-0.33 0.99 -0.66 1.98 -1 3 C-1.598125 2.773125 -2.19625 2.54625 -2.8125 2.3125 C-5.02298078 1.76061311 -5.02298078 1.76061311 -6.75 3.0625 C-8.48497427 5.75171012 -8.20873629 7.86895563 -8 11 C-5.69 11 -3.38 11 -1 11 C-1.66 12.32 -2.32 13.64 -3 15 C-9.34507042 15.35915493 -9.34507042 15.35915493 -11.9375 13.9375 C-13.65078429 10.8132757 -13.41526697 8.50010732 -13 5 C-10.2137031 -0.37357259 -10.2137031 -0.37357259 -7.0625 -2 C-4.35982113 -2 -2.42379674 -1.14457068 0 0 Z " fill="#151515" transform="translate(342,174)"/>
<path d="M0 0 C0 0.99 0 1.98 0 3 C-0.598125 3.433125 -1.19625 3.86625 -1.8125 4.3125 C-4.60814051 6.46913696 -5.58276497 8.81122119 -7 12 C-7.66 12 -8.32 12 -9 12 C-8.979375 12.804375 -8.95875 13.60875 -8.9375 14.4375 C-9 17 -9 17 -10 18 C-10.16054048 20.1643235 -10.27771401 22.33191216 -10.375 24.5 C-11.13059534 36.05824754 -11.13059534 36.05824754 -14 41 C-15.485 41.495 -15.485 41.495 -17 42 C-16.79503906 41.45214844 -16.59007812 40.90429688 -16.37890625 40.33984375 C-14.5504094 34.95933866 -13.76747069 30.06017492 -13.5 24.375 C-13.13369116 17.11475885 -12.26448586 10.49337655 -7 5 C-6.34 5 -5.68 5 -5 5 C-4.67 4.01 -4.34 3.02 -4 2 C-1.9375 0.8125 -1.9375 0.8125 0 0 Z " fill="#D53D46" transform="translate(155,64)"/>
<path d="M0 0 C1 2 1 2 0 5.25 C-1.89595709 12.35983909 0.91855642 18.56084548 4 25 C4.97554498 26.35132889 5.97355581 27.68691581 7 29 C10.54035806 35.39987804 10.6851751 41.78073939 11 49 C10.01 49.495 10.01 49.495 9 50 C8.814375 48.52853516 8.814375 48.52853516 8.625 47.02734375 C7.24785253 37.59564916 4.55278993 30.23020801 -0.2578125 22.01171875 C-3.47967573 16.44208523 -3.55241526 11.30674089 -3 5 C-1.5 1.8125 -1.5 1.8125 0 0 Z " fill="#525b4a" transform="translate(21,125)"/>
<path d="M0 0 C3.69628969 -0.21742881 6.45781172 -0.20764658 9.9375 1.125 C12 3 12 3 12.5 5.875 C11.9406423 9.37098562 11.18003073 11.21858148 9 14 C6.3125 15.8125 6.3125 15.8125 4 17 C4 16.01 4 15.02 4 14 C3.34 13.67 2.68 13.34 2 13 C3.65 11.68 5.3 10.36 7 9 C6.67 7.68 6.34 6.36 6 5 C4.35 4.67 2.7 4.34 1 4 C0.67 2.68 0.34 1.36 0 0 Z " fill="#141414" transform="translate(295,202)"/>
<path d="M0 0 C1.65 0 3.3 0 5 0 C3 3 3 3 0.6875 4.3125 C-2.68324514 6.42901439 -5.29030219 8.38196728 -7 12 C-7.88371945 18.9704613 -6.92383491 26.07123814 -6 33 C-6.66 33 -7.32 33 -8 33 C-10.82643382 26.0281299 -11.76383784 18.33385207 -10 11 C-9.34 11 -8.68 11 -8 11 C-7.67 9.35 -7.34 7.7 -7 6 C-6.360625 5.896875 -5.72125 5.79375 -5.0625 5.6875 C-4.381875 5.460625 -3.70125 5.23375 -3 5 C-2.67 4.01 -2.34 3.02 -2 2 C-1.34 2 -0.68 2 0 2 C0 1.34 0 0.68 0 0 Z " fill="#525b4a" transform="translate(65,34)"/>
<path d="M0 0 C-0.26885906 3.85364648 -0.82004348 5.76348571 -3.1875 8.875 C-6.45646885 11.34488758 -8.00225368 11.46485422 -12 11 C-11.73114094 7.14635352 -11.17995652 5.23651429 -8.8125 2.125 C-5.54353115 -0.34488758 -3.99774632 -0.46485422 0 0 Z " fill="#525b4a" transform="translate(327,206)"/>
<path d="M0 0 C6.17229245 3.21133381 11.47465968 7.69100412 16.77734375 12.15234375 C15.78734375 12.48234375 14.79734375 12.81234375 13.77734375 13.15234375 C11.08984375 11.33984375 11.08984375 11.33984375 8.77734375 9.15234375 C8.77734375 8.49234375 8.77734375 7.83234375 8.77734375 7.15234375 C6.13734375 6.49234375 3.49734375 5.83234375 0.77734375 5.15234375 C0.77734375 4.49234375 0.77734375 3.83234375 0.77734375 3.15234375 C-1.15862517 2.93023259 -3.09654953 2.72511383 -5.03515625 2.52734375 C-6.11410156 2.41132812 -7.19304688 2.2953125 -8.3046875 2.17578125 C-11.41889957 1.87774219 -11.41889957 1.87774219 -14.22265625 4.15234375 C-16.41015625 3.77734375 -16.41015625 3.77734375 -18.22265625 3.15234375 C-12.24625361 -0.91669635 -7.03208216 -2.68183098 0 0 Z " fill="#2874A6" transform="translate(40.22265625,120.84765625)"/>
<path d="M0 0 C-0.309375 0.763125 -0.61875 1.52625 -0.9375 2.3125 C-1.67893593 4.18789677 -2.36228217 6.08684652 -3 8 C-4.77734375 9.16796875 -4.77734375 9.16796875 -6.9375 10.1875 C-7.64777344 10.53167969 -8.35804688 10.87585938 -9.08984375 11.23046875 C-11 12 -11 12 -13 12 C-12.95875 11.21625 -12.9175 10.4325 -12.875 9.625 C-12.71271266 6.83883881 -12.71271266 6.83883881 -15 5 C-13.06532058 4.16013916 -11.12714871 3.32831973 -9.1875 2.5 C-8.10855469 2.0359375 -7.02960938 1.571875 -5.91796875 1.09375 C-3 0 -3 0 0 0 Z " fill="#181818" transform="translate(206,169)"/>
<path d="M0 0 C0 0.99 0 1.98 0 3 C-1.32 3 -2.64 3 -4 3 C-3.69964844 3.60328125 -3.39929688 4.2065625 -3.08984375 4.828125 C-2.51943359 6.02695313 -2.51943359 6.02695313 -1.9375 7.25 C-1.55464844 8.03890625 -1.17179688 8.8278125 -0.77734375 9.640625 C0.08564091 12.25993522 -0.06954067 13.44855176 -1 16 C-4 15 -4 15 -5.421875 12.6015625 C-5.86015625 11.61929688 -6.2984375 10.63703125 -6.75 9.625 C-7.19859375 8.64789063 -7.6471875 7.67078125 -8.109375 6.6640625 C-9 4 -9 4 -8 1 C-5.07175348 0.02391783 -3.04386724 -0.08226668 0 0 Z " fill="#131313" transform="translate(211,206)"/>
<path d="M0 0 C8.65993002 7.64111472 13.13139216 18.95865221 18.09521484 29.17382812 C18.96076346 30.92080699 19.87967433 32.64104104 20.80078125 34.359375 C21.19652344 35.23078125 21.59226563 36.1021875 22 37 C21 39 21 39 19 40 C18.68289062 38.97003906 18.36578125 37.94007812 18.0390625 36.87890625 C14.17409084 24.89224239 8.88502685 13.6977683 1.19921875 3.64453125 C0 2 0 2 0 0 Z " fill="#5A5A5A" transform="translate(227,54)"/>
<path d="M0 0 C3.07114178 2.54315179 3.97855667 5.19023889 5.1875 8.9375 C5.53167969 9.97777344 5.87585938 11.01804687 6.23046875 12.08984375 C7 15 7 15 7 19 C6.34 19 5.68 19 5 19 C5 23.62 5 28.24 5 33 C4.67 33 4.34 33 4 33 C3.96261719 31.99582031 3.92523438 30.99164063 3.88671875 29.95703125 C3.52295367 21.93251153 2.69118087 14.47679677 0.62109375 6.671875 C0 4 0 4 0 0 Z " fill="#333333" transform="translate(247,92)"/>
<path d="M0 0 C2.38647089 1.84099183 4.06177725 3.28938453 5.140625 6.140625 C5.181875 6.6975 5.223125 7.254375 5.265625 7.828125 C4.275625 7.498125 3.285625 7.168125 2.265625 6.828125 C2.265625 6.168125 2.265625 5.508125 2.265625 4.828125 C1.275625 5.158125 0.285625 5.488125 -0.734375 5.828125 C-0.734375 4.508125 -0.734375 3.188125 -0.734375 1.828125 C-8.20759108 -0.32909201 -14.94476376 -1.63718364 -22.734375 -1.171875 C-16.60624828 -7.30000172 -6.33312095 -4.27913578 0 0 Z " fill="#D53C47" transform="translate(179.734375,65.171875)"/>
<path d="M0 0 C0.66 0.33 1.32 0.66 2 1 C1 4 1 4 -2.0625 5.6875 C-6.13221572 7.30863157 -9.65961049 7.22844155 -14 7 C-14.5625 5.0625 -14.5625 5.0625 -15 3 C-12.66824807 0.66824807 -7.0611792 1.47328917 -3.90625 1.28125 C-1.10949868 1.3214011 -1.10949868 1.3214011 0 0 Z " fill="#525b4a" transform="translate(384,210)"/>
<path d="M0 0 C0 1.65 0 3.3 0 5 C-0.75925781 5.06058594 -1.51851562 5.12117187 -2.30078125 5.18359375 C-3.29464844 5.26738281 -4.28851563 5.35117188 -5.3125 5.4375 C-6.29863281 5.51871094 -7.28476563 5.59992188 -8.30078125 5.68359375 C-11.09375599 5.91812559 -11.09375599 5.91812559 -14 7 C-14.33 5.68 -14.66 4.36 -15 3 C-9.8531808 -0.16727335 -5.841744 -0.35050464 0 0 Z " fill="#1E1E1E" transform="translate(237,201)"/>
<path d="M0 0 C0.66 0 1.32 0 2 0 C2 0.66 2 1.32 2 2 C2.66 2 3.32 2 4 2 C4 2.66 4 3.32 4 4 C6.97 4 9.94 4 13 4 C10.04390853 6.95609147 7.27364316 7.21255478 3.25 7.375 C-2.31303746 7.35868611 -4.86705319 5.59386679 -9 2 C-6.13822943 0.56911472 -4.06624227 1.40008303 -1 2 C-0.67 1.34 -0.34 0.68 0 0 Z " fill="#DB2932" transform="translate(140,142)"/>
<path d="M0 0 C0.33 0 0.66 0 1 0 C1.0810206 2.10353495 1.13919907 4.20795952 1.1875 6.3125 C1.22230469 7.48425781 1.25710937 8.65601563 1.29296875 9.86328125 C0.96507357 13.37394562 0.49027764 13.77116883 -2 16 C-2 17.32 -2 18.64 -2 20 C-2.66 20 -3.32 20 -4 20 C-4.6708712 18.3767313 -5.33657029 16.75132422 -6 15.125 C-6.37125 14.22007812 -6.7425 13.31515625 -7.125 12.3828125 C-8 10 -8 10 -8 8 C-2.25 7.875 -2.25 7.875 0 9 C0 6.03 0 3.06 0 0 Z " fill="#525b4a" transform="translate(215,201)"/>
<path d="M0 0 C0 0.33 0 0.66 0 1 C1.44632813 0.85691406 1.44632813 0.85691406 2.921875 0.7109375 C4.81679687 0.54464844 4.81679687 0.54464844 6.75 0.375 C8.62945312 0.20097656 8.62945312 0.20097656 10.546875 0.0234375 C13.83586903 0.00111401 15.31020776 0.22038998 18 2 C18 2.33 18 2.66 18 3 C17.33991943 3.01458252 16.67983887 3.02916504 15.99975586 3.04418945 C12.97844603 3.11914612 9.95818405 3.21564806 6.9375 3.3125 C5.89916016 3.33505859 4.86082031 3.35761719 3.79101562 3.38085938 C-2.1983269 3.59001102 -6.68181606 4.1862658 -12 7 C-11.4376049 3.73810844 -10.5859495 2.08865152 -8 0 C-4.71023192 -1.09658936 -3.28696233 -0.79953138 0 0 Z " fill="#10663F" transform="translate(92,104)"/>
<path d="M0 0 C0 1.32 0 2.64 0 4 C-0.67546875 4.04898438 -1.3509375 4.09796875 -2.046875 4.1484375 C-2.93890625 4.22320312 -3.8309375 4.29796875 -4.75 4.375 C-5.63171875 4.44460937 -6.5134375 4.51421875 -7.421875 4.5859375 C-10.01608442 4.8704744 -10.01608442 4.8704744 -12.203125 6.1015625 C-12.79609375 6.39804688 -13.3890625 6.69453125 -14 7 C-14.66 6.67 -15.32 6.34 -16 6 C-16.33 6.66 -16.66 7.32 -17 8 C-16.77347501 4.82865008 -15.9392256 3.94390056 -13.5625 1.75 C-8.90042893 -0.54014017 -5.09636993 -0.36258758 0 0 Z " fill="#141414" transform="translate(279,202)"/>
<path d="M0 0 C2 2 2 2 3.2734375 5.23828125 C4.96600116 9.34833677 7.51591523 12.07436694 10.625 15.1875 C16.62303926 21.23936781 16.62303926 21.23936781 17 25 C13.62072216 23.87357405 12.52703842 22.99551702 10.875 19.875 C10.58625 19.25625 10.2975 18.6375 10 18 C8.68 18 7.36 18 6 18 C6 16.68 6 15.36 6 14 C5.34 14 4.68 14 4 14 C3.67 12.02 3.34 10.04 3 8 C2.34 8 1.68 8 1 8 C0.67 5.36 0.34 2.72 0 0 Z " fill="#D92C37" transform="translate(189,87)"/>
<path d="M0 0 C3.75311156 1.3678306 6.86724527 3.10063164 10.1875 5.3125 C17.07437115 9.7676188 24.08155858 13.70781959 32 16 C30.2644043 17.10913086 30.2644043 17.10913086 28 18 C25.94458008 17.42016602 25.94458008 17.42016602 23.76953125 16.25390625 C22.9700708 15.83165771 22.17061035 15.40940918 21.34692383 14.97436523 C20.51056396 14.50844971 19.6742041 14.04253418 18.8125 13.5625 C17.96131592 13.10109619 17.11013184 12.63969238 16.2331543 12.16430664 C10.4597484 8.9744542 4.73798777 5.65261862 0 1 C0 0.67 0 0.34 0 0 Z " fill="#525b4a" transform="translate(45,254)"/>
<path d="M0 0 C0.66 0 1.32 0 2 0 C2.433125 1.0725 2.86625 2.145 3.3125 3.25 C4.5673189 6.16023726 5.82864003 8.64769337 8 11 C8.99 11.33 9.98 11.66 11 12 C11 12.66 11 13.32 11 14 C12.85625 13.443125 12.85625 13.443125 14.75 12.875 C18.65289982 11.87851494 18.65289982 11.87851494 21.5 12.875 C21.995 13.24625 22.49 13.6175 23 14 C20.58165307 16.41834693 19.71720073 16.40211575 16.375 16.5625 C10.98361406 16.46887246 8.36525912 14.61890106 4.62890625 10.875 C1.32236898 7.06891393 0 5.11667534 0 0 Z " fill="#1E73AC" transform="translate(31,177)"/>
<path d="M0 0 C1.32 0.66 2.64 1.32 4 2 C3.67 4.64 3.34 7.28 3 10 C1.34385343 10.38218767 -0.32457024 10.71395102 -2 11 C-3 10 -3 10 -3.25 7.1875 C-2.97826344 3.72285889 -2.31309135 2.50584896 0 0 Z " fill="#525b4a" transform="translate(319,175)"/>
<path d="M0 0 C0 1.32 0 2.64 0 4 C-1.43554025 4.50559908 -2.8735202 5.0042749 -4.3125 5.5 C-5.51326172 5.91765625 -5.51326172 5.91765625 -6.73828125 6.34375 C-9 7 -9 7 -12 7 C-12 5.68 -12 4.36 -12 3 C-4.71428571 -0.42857143 -4.71428571 -0.42857143 0 0 Z " fill="#252525" transform="translate(360,214)"/>
<path d="M0 0 C0.77923828 0.73283203 0.77923828 0.73283203 1.57421875 1.48046875 C-0.17578125 2.10546875 -0.17578125 2.10546875 -2.42578125 2.48046875 C-3.04453125 2.16722656 -3.66328125 1.85398437 -4.30078125 1.53125 C-7.94408086 -0.27030808 -11.46235554 -0.16277575 -15.42578125 0.48046875 C-20.00111208 2.46733387 -23.845299 5.12590496 -26.42578125 9.48046875 C-26.75578125 8.49046875 -27.08578125 7.50046875 -27.42578125 6.48046875 C-26.76578125 6.48046875 -26.10578125 6.48046875 -25.42578125 6.48046875 C-25.24015625 5.53171875 -25.05453125 4.58296875 -24.86328125 3.60546875 C-23.42578125 0.48046875 -23.42578125 0.48046875 -20.67578125 -0.89453125 C-14.46504551 -2.16819165 -5.49495351 -3.44208843 0 0 Z " fill="#525b4a" transform="translate(44.42578125,120.51953125)"/>
<path d="M0 0 C0.66 0 1.32 0 2 0 C2.33 1.65 2.66 3.3 3 5 C7.455 5.99 7.455 5.99 12 7 C11.67 7.99 11.34 8.98 11 10 C9.56344146 10.08131463 8.1255517 10.13933559 6.6875 10.1875 C5.48673828 10.23970703 5.48673828 10.23970703 4.26171875 10.29296875 C2 10 2 10 0.22265625 8.68359375 C-1.61435396 6.15403655 -1.26358729 4.03125382 -1 1 C-0.67 0.67 -0.34 0.34 0 0 Z " fill="#0D0D0D" transform="translate(337,211)"/>
<path d="M0 0 C2.375 -0.125 2.375 -0.125 5 0 C5.66 0.66 6.32 1.32 7 2 C6.875 4.5 6.875 4.5 6 7 C3.43689172 8.7941758 2.16880694 9 -1 9 C-0.67 6.03 -0.34 3.06 0 0 Z " fill="#525b4a" transform="translate(301,169)"/>
<path d="M0 0 C0.33 0 0.66 0 1 0 C1 1.65 1 3.3 1 5 C0.34 5 -0.32 5 -1 5 C-1 5.99 -1 6.98 -1 8 C-6.94 8.495 -6.94 8.495 -13 9 C-12.67 7.68 -12.34 6.36 -12 5 C-9.47524538 3.73762269 -7.68799534 3.90143596 -4.875 3.9375 C-3.96492188 3.94652344 -3.05484375 3.95554688 -2.1171875 3.96484375 C-1.41851562 3.97644531 -0.71984375 3.98804688 0 4 C0 2.68 0 1.36 0 0 Z " fill="#525b4a" transform="translate(279,202)"/>
<path d="M0 0 C5.29441695 -0.50423019 7.81413519 0.81076967 12 4 C11.01 5.485 11.01 5.485 10 7 C6 7 2 7 -2 7 C0.27364177 4.57000464 1.68273845 3.57194165 5 3 C5 2.34 5 1.68 5 1 C3.35 1 1.7 1 0 1 C0 0.67 0 0.34 0 0 Z " fill="#2A2A2A" transform="translate(373,201)"/>
<path d="M0 0 C5.61 0 11.22 0 17 0 C17 0.33 17 0.66 17 1 C15.97519531 1.26554688 14.95039063 1.53109375 13.89453125 1.8046875 C12.53381011 2.16129028 11.17313547 2.51807051 9.8125 2.875 C9.13896484 3.04902344 8.46542969 3.22304687 7.77148438 3.40234375 C4.0649543 4.37869801 0.52089633 5.4822544 -3 7 C-3.33 5.68 -3.66 4.36 -4 3 C-3.01 3 -2.02 3 -1 3 C-0.67 2.01 -0.34 1.02 0 0 Z " fill="#DB2D38" transform="translate(165,134)"/>
<path d="M0 0 C0.66 0 1.32 0 2 0 C1.690625 1.010625 1.38125 2.02125 1.0625 3.0625 C-0.35412981 8.5606087 -0.43181475 14.16014091 -0.65625 19.8046875 C-1 23 -1 23 -3 25 C-4.08354989 20.73147012 -4.01304695 16.8841158 -3.75 12.5 C-3.68296875 11.2109375 -3.6159375 9.921875 -3.546875 8.59375 C-2.99363826 4.95819431 -2.24363805 2.88785095 0 0 Z " fill="#525b4a" transform="translate(143,73)"/>
<path d="M0 0 C0.639375 0.721875 1.27875 1.44375 1.9375 2.1875 C5.40173384 5.69178279 9.65139892 7.77359204 14 10 C14 10.33 14 10.66 14 11 C10.7 11.33 7.4 11.66 4 12 C3.9071875 10.824375 3.9071875 10.824375 3.8125 9.625 C3.544375 8.75875 3.27625 7.8925 3 7 C0.52363988 5.62533375 0.52363988 5.62533375 -2 5 C-1.34 3.35 -0.68 1.7 0 0 Z " fill="#196743" transform="translate(93,53)"/>
<path d="M0 0 C6.57534861 0.62031591 12.66692592 2.14897283 19 4 C18.01 4.33 17.02 4.66 16 5 C16 5.66 16 6.32 16 7 C14.26982492 6.54548816 12.54090123 6.08621143 10.8125 5.625 C9.84957031 5.36976563 8.88664062 5.11453125 7.89453125 4.8515625 C5.17789793 4.05233704 2.60862825 3.0968638 0 2 C0 1.34 0 0.68 0 0 Z " fill="#303030" transform="translate(75,271)"/>
<path d="M0 0 C4.71322444 2.35661222 7.99934765 5.72071916 11 10 C11 10.66 11 11.32 11 12 C7.27715732 11.49691315 5.42672659 10.88896023 3 8 C2.34 7.34 1.68 6.68 1 6 C1.375 3.875 1.375 3.875 2 2 C1.34 2 0.68 2 0 2 C0 1.34 0 0.68 0 0 Z " fill="#1A6944" transform="translate(79,37)"/>
<path d="M0 0 C-0.33 0.99 -0.66 1.98 -1 3 C-7.04320928 5.08765411 -12.65166295 5.23415997 -19 5 C-16.37013188 2.37013188 -14.23771675 2.178728 -10.625 1.375 C-9.48289063 1.11460937 -8.34078125 0.85421875 -7.1640625 0.5859375 C-4 0 -4 0 0 0 Z " fill="#525b4a" transform="translate(186,134)"/>
<path d="M0 0 C0 0.33 0 0.66 0 1 C-4.455 1.495 -4.455 1.495 -9 2 C-8.01 2.66 -7.02 3.32 -6 4 C-6.87011719 4.16435547 -6.87011719 4.16435547 -7.7578125 4.33203125 C-12.59746277 5.3143365 -16.65366116 6.54821911 -21 9 C-19.25528179 4.93767103 -17.1715848 3.21900687 -13.44140625 0.97265625 C-9.06301071 -0.77169653 -4.62724163 -0.38276815 0 0 Z " fill="#272727" transform="translate(139,217)"/>
<path d="M0 0 C0 0.66 0 1.32 0 2 C-0.75925781 2.03738281 -1.51851562 2.07476562 -2.30078125 2.11328125 C-3.29464844 2.17902344 -4.28851563 2.24476563 -5.3125 2.3125 C-6.29863281 2.37050781 -7.28476563 2.42851562 -8.30078125 2.48828125 C-11.30573188 3.05796075 -12.12657302 3.66542176 -14 6 C-16 8 -16 8 -19.125 8.125 C-20.548125 8.063125 -20.548125 8.063125 -22 8 C-15.47694923 0.91783059 -9.40295435 0 0 0 Z " fill="#525b4a" transform="translate(82,179)"/>
<path d="M0 0 C0.515625 0.61875 1.03125 1.2375 1.5625 1.875 C4.54458615 4.47476742 7.18446201 5.11949123 11 6 C10.01 6.99 9.02 7.98 8 9 C9.65 9.33 11.3 9.66 13 10 C13 10.33 13 10.66 13 11 C9.05859564 11.30912975 6.63830712 11.34690605 3.125 9.4375 C0.4228959 6.33802764 0.23316485 4.04152406 0 0 Z " fill="#323232" transform="translate(364,211)"/>
<path d="M0 0 C0.33 1.65 0.66 3.3 1 5 C0.01 5.33 -0.98 5.66 -2 6 C-2 5.34 -2 4.68 -2 4 C-3.98 4.33 -5.96 4.66 -8 5 C-8 4.01 -8 3.02 -8 2 C-8.66 1.67 -9.32 1.34 -10 1 C-6.52674819 -0.1577506 -3.63932552 -0.06866652 0 0 Z " fill="#1B1B1B" transform="translate(354,202)"/>
<path d="M0 0 C2 2 2 2 2.125 4.625 C2.08375 5.40875 2.0425 6.1925 2 7 C1.01 7.495 1.01 7.495 0 8 C-0.65213292 10.02463255 -0.65213292 10.02463255 -1 12 C-2.65 12 -4.3 12 -6 12 C-6.33 10.02 -6.66 8.04 -7 6 C-6.34 6 -5.68 6 -5 6 C-5 7.65 -5 9.3 -5 11 C-4.01 11 -3.02 11 -2 11 C-2 7.7 -2 4.4 -2 1 C-1.34 0.67 -0.68 0.34 0 0 Z " fill="#525b4a" transform="translate(333,210)"/>
<path d="M0 0 C0.33 0.66 0.66 1.32 1 2 C-1.51428571 8.51428571 -1.51428571 8.51428571 -3 10 C-4.66617115 10.04063832 -6.33388095 10.042721 -8 10 C-8 10.66 -8 11.32 -8 12 C-8.66 12 -9.32 12 -10 12 C-8.85219363 8.55658088 -7.27862931 7.47763864 -4.5 5.2734375 C-2.67093274 3.72063561 -1.32763749 1.99145624 0 0 Z " fill="#0177C6" transform="translate(91,164)"/>
<path d="M0 0 C3.21085064 4.81627596 4.27358468 7.89307794 4.625 13.75 C4.69976563 14.92046875 4.77453125 16.0909375 4.8515625 17.296875 C4.90054687 18.18890625 4.94953125 19.0809375 5 20 C4.34 20.33 3.68 20.66 3 21 C2.49432271 18.43850372 1.99529868 15.87600535 1.5 13.3125 C1.35691406 12.59126953 1.21382812 11.87003906 1.06640625 11.12695312 C0.34428113 7.36158641 -0.1824976 3.85526187 0 0 Z " fill="#1870A9" transform="translate(27,154)"/>
<path d="M0 0 C-0.33 1.65 -0.66 3.3 -1 5 C-4.96 5 -8.92 5 -13 5 C-10.94876752 2.94876752 -9.72994937 2.35852882 -7.0625 1.375 C-6.37285156 1.11460937 -5.68320312 0.85421875 -4.97265625 0.5859375 C-3 0 -3 0 0 0 Z " fill="#080808" transform="translate(385,206)"/>
<path d="M0 0 C0.66 0.33 1.32 0.66 2 1 C2 5.29 2 9.58 2 14 C1.01 13.67 0.02 13.34 -1 13 C-1.02708567 11.39592672 -1.04643483 9.7917215 -1.0625 8.1875 C-1.07410156 7.29417969 -1.08570313 6.40085938 -1.09765625 5.48046875 C-1 3 -1 3 0 0 Z " fill="#050505" transform="translate(249,208)"/>
<path d="M0 0 C1.11808343 3.3542503 1.3996679 5.70666377 0 9 C-2.48310729 10.85382668 -4.9783242 12.27681599 -8 13 C-10.26171875 12.09765625 -10.26171875 12.09765625 -12 11 C-11.46890625 10.79246094 -10.9378125 10.58492187 -10.390625 10.37109375 C-4.71653672 7.89644576 -2.58975213 5.61112962 0 0 Z " fill="#525b4a" transform="translate(94,167)"/>
<path d="M0 0 C1.25683594 0.46019531 1.25683594 0.46019531 2.5390625 0.9296875 C6.1643701 2.05083229 9.61576806 2.62849767 13.375 3.125 C14.62023437 3.29257813 15.86546875 3.46015625 17.1484375 3.6328125 C18.55996094 3.81457031 18.55996094 3.81457031 20 4 C20 4.33 20 4.66 20 5 C6.66997819 5.39399079 6.66997819 5.39399079 1 3 C0.67 2.01 0.34 1.02 0 0 Z " fill="#2A77AB" transform="translate(57,134)"/>
<path d="M0 0 C0 0.99 0 1.98 0 3 C-0.92232422 2.96519531 -0.92232422 2.96519531 -1.86328125 2.9296875 C-2.67152344 2.91164063 -3.47976562 2.89359375 -4.3125 2.875 C-5.51326172 2.84019531 -5.51326172 2.84019531 -6.73828125 2.8046875 C-9.28388576 2.84182678 -9.28388576 2.84182678 -12 5 C-14.1875 4.625 -14.1875 4.625 -16 4 C-10.45834744 0.22695996 -6.65545792 -0.54330269 0 0 Z " fill="#2D7CB0" transform="translate(38,120)"/>
<path d="M0 0 C0.33 0 0.66 0 1 0 C1.33 4.29 1.66 8.58 2 13 C2.66 13 3.32 13 4 13 C3.625 15.4375 3.625 15.4375 3 18 C2.34 18.33 1.68 18.66 1 19 C-1.50413785 12.51870203 -0.82810601 6.81508864 0 0 Z " fill="#E2202A" transform="translate(188,82)"/>
<path d="M0 0 C0.66 0 1.32 0 2 0 C3.35439668 2.70879335 3.06501451 5.00933268 3 8 C1.02 8.33 -0.96 8.66 -3 9 C-2.01 6.03 -1.02 3.06 0 0 Z " fill="#525b4a" transform="translate(197,199)"/>
<path d="M0 0 C0.61875 0.495 1.2375 0.99 1.875 1.5 C6.27978665 3.61429759 10.20124765 3.21960392 15 3 C15.99 3 16.98 3 18 3 C17.01 4.485 17.01 4.485 16 6 C13.5390625 6.328125 13.5390625 6.328125 10.625 6.25 C9.66851562 6.23453125 8.71203125 6.2190625 7.7265625 6.203125 C5.34907017 6.02600523 3.27977308 5.66988593 1 5 C0.67 3.35 0.34 1.7 0 0 Z " fill="#525b4a" transform="translate(37,189)"/>
<path d="M0 0 C0.33 0 0.66 0 1 0 C1.12117188 0.88042969 1.24234375 1.76085937 1.3671875 2.66796875 C1.53476562 3.82941406 1.70234375 4.99085938 1.875 6.1875 C2.03742187 7.33605469 2.19984375 8.48460937 2.3671875 9.66796875 C2.94060245 12.68724625 3.74759043 15.20575848 5 18 C4.01 18.33 3.02 18.66 2 19 C1.34 18.67 0.68 18.34 0 18 C0 12.06 0 6.12 0 0 Z " fill="#525b4a" transform="translate(17,131)"/>
<path d="M0 0 C1.32 0.66 2.64 1.32 4 2 C3.34 4.31 2.68 6.62 2 9 C0.68 9.33 -0.64 9.66 -2 10 C-1.125 2.25 -1.125 2.25 0 0 Z " fill="#242424" transform="translate(188,211)"/>
<path d="M0 0 C2.375 0.25 2.375 0.25 5 1 C6.1875 2.9375 6.1875 2.9375 7 5 C7.66 5.66 8.32 6.32 9 7 C3.54545455 7.36363636 3.54545455 7.36363636 1.125 5.75 C0 4 0 4 0 0 Z " fill="#282828" transform="translate(261,208)"/>
<path d="M0 0 C0.598125 0.495 1.19625 0.99 1.8125 1.5 C3.97029994 3.28276418 3.97029994 3.28276418 7 3 C7 3.66 7 4.32 7 5 C7.99 5.33 8.98 5.66 10 6 C9.67 7.32 9.34 8.64 9 10 C5.7 7.36 2.4 4.72 -1 2 C-0.67 1.34 -0.34 0.68 0 0 Z " fill="#525b4a" transform="translate(47,123)"/>
<path d="M0 0 C0.99 0.33 1.98 0.66 3 1 C-0.625 7.75 -0.625 7.75 -4 10 C-4.99 9.34 -5.98 8.68 -7 8 C-6.34 8 -5.68 8 -5 8 C-4.731875 7.4225 -4.46375 6.845 -4.1875 6.25 C-2.98280141 3.9674132 -1.59201885 2.0262058 0 0 Z " fill="#1A6746" transform="translate(119,94)"/>
<path d="M0 0 C2.52845528 1.26422764 2.76422764 2.52845528 4 5 C4.66 5.33 5.32 5.66 6 6 C6 6.66 6 7.32 6 8 C4.00045254 8.04254356 1.99958364 8.04080783 0 8 C-1 7 -1 7 -1.125 4 C-1 1 -1 1 0 0 Z " fill="#0D0D0D" transform="translate(312,212)"/>
<path d="M0 0 C0 0.33 0 0.66 0 1 C-6.93 1 -13.86 1 -21 1 C-21 0.67 -21 0.34 -21 0 C-18.43904329 -0.39121548 -15.8776528 -0.76333355 -13.3125 -1.125 C-12.59126953 -1.23714844 -11.87003906 -1.34929687 -11.12695312 -1.46484375 C-6.80903549 -2.05633932 -3.88066506 -2.06662636 0 0 Z " fill="#1A6745" transform="translate(110,106)"/>
<path d="M0 0 C3.82669043 3.42388092 5.72278474 6.00724943 7 11 C3.06451569 7.93906776 0.31883213 5.50884026 -2 1 C-1.34 0.67 -0.68 0.34 0 0 Z " fill="#525b4a" transform="translate(195,94)"/>
<path d="M0 0 C0 0.99 0 1.98 0 3 C1.98 3 3.96 3 6 3 C6 3.33 6 3.66 6 4 C4.01432292 4.22786458 2.02864583 4.45572917 0.04296875 4.68359375 C-2.19396393 4.97170735 -2.19396393 4.97170735 -5 6 C-5.33 4.68 -5.66 3.36 -6 2 C-3 0 -3 0 0 0 Z " fill="#2C2C2C" transform="translate(228,202)"/>
<path d="M0 0 C2.20146825 2.20146825 3.03558396 4.332317 4.203125 7.1796875 C5.25805942 9.58948868 6.58954365 11.78356859 8 14 C6.68 14 5.36 14 4 14 C3.67 12.02 3.34 10.04 3 8 C2.34 8 1.68 8 1 8 C0.67 5.36 0.34 2.72 0 0 Z " fill="#D33D48" transform="translate(189,87)"/>
<path d="M0 0 C2.2477975 2.05233685 3.0022242 3.00667261 4 6 C4.06970052 8.39490986 4.08448003 10.79167691 4.0625 13.1875 C4.05347656 14.45980469 4.04445313 15.73210937 4.03515625 17.04296875 C4.02355469 18.01878906 4.01195313 18.99460937 4 20 C3.67 20 3.34 20 3 20 C2.95101562 19.07316406 2.90203125 18.14632812 2.8515625 17.19140625 C2.77679688 15.99386719 2.70203125 14.79632813 2.625 13.5625 C2.55539063 12.36753906 2.48578125 11.17257813 2.4140625 9.94140625 C2.27742188 8.97074219 2.14078125 8.00007813 2 7 C1.34 6.67 0.68 6.34 0 6 C0 4.02 0 2.04 0 0 Z " fill="#337455" transform="translate(119,73)"/>
<path d="M0 0 C0.33 0 0.66 0 1 0 C1.66 5.94 2.32 11.88 3 18 C2.34 18 1.68 18 1 18 C-1.3548854 11.76647981 -0.87557031 6.54311329 0 0 Z " fill="#525b4a" transform="translate(56,49)"/>
<path d="M0 0 C1.65 0 3.3 0 5 0 C2.84336733 3.23494901 1.31096016 4.10802277 -2 6 C-3.34631825 6.98244845 -4.68441297 7.97676564 -6 9 C-6 7.68 -6 6.36 -6 5 C-5.01 5 -4.02 5 -3 5 C-2.67 4.01 -2.34 3.02 -2 2 C-1.34 2 -0.68 2 0 2 C0 1.34 0 0.68 0 0 Z " fill="#525b4a" transform="translate(65,34)"/>
<path d="M0 0 C3.3 0 6.6 0 10 0 C9.67 0.99 9.34 1.98 9 3 C6.36 3 3.72 3 1 3 C0.67 2.01 0.34 1.02 0 0 Z " fill="#090909" transform="translate(101,278)"/>
<path d="M0 0 C0.68359375 1.671875 0.68359375 1.671875 1 4 C-0.21484375 6.578125 -0.21484375 6.578125 -1.9375 9.25 C-2.50339844 10.14203125 -3.06929687 11.0340625 -3.65234375 11.953125 C-4.09707031 12.62859375 -4.54179687 13.3040625 -5 14 C-6.125 10.25 -6.125 10.25 -5 8 C-4.34 8 -3.68 8 -3 8 C-2.87625 7.4225 -2.7525 6.845 -2.625 6.25 C-1.99351176 3.97664233 -1.11141809 2.0746471 0 0 Z " fill="#525b4a" transform="translate(139,98)"/>
<path d="M0 0 C1.65 0 3.3 0 5 0 C6.4606285 2.64738916 7 3.89448334 7 7 C7.66 7 8.32 7 9 7 C9 8.65 9 10.3 9 12 C7.34349037 9.8702019 5.8648907 7.76918828 4.5 5.4375 C3.1629418 3.26478043 1.87941664 1.70042458 0 0 Z " fill="#525b4a" transform="translate(179,65)"/>
<path d="M0 0 C0.99 0.33 1.98 0.66 3 1 C3 2.32 3 3.64 3 5 C2.34 5 1.68 5 1 5 C1 9.62 1 14.24 1 19 C0.67 19 0.34 19 0 19 C0 12.73 0 6.46 0 0 Z " fill="#515151" transform="translate(251,106)"/>
<path d="M0 0 C1.4606285 2.64738916 2 3.89448334 2 7 C1.67 7.66 1.34 8.32 1 9 C-0.32 8.34 -1.64 7.68 -3 7 C-3 3.48283697 -2.17554415 2.62878252 0 0 Z " fill="#525b4a" transform="translate(119,99)"/>
<path d="M0 0 C3.63 0 7.26 0 11 0 C10.01 1.485 10.01 1.485 9 3 C5.7 2.67 2.4 2.34 -1 2 C-0.67 1.34 -0.34 0.68 0 0 Z " fill="#030303" transform="translate(130,218)"/>
<path d="M0 0 C0 0.99 0 1.98 0 3 C-1.32 3 -2.64 3 -4 3 C-4.33 3.66 -4.66 4.32 -5 5 C-6.32 4.67 -7.64 4.34 -9 4 C-8.67 3.01 -8.34 2.02 -8 1 C-5.07175348 0.02391783 -3.04386724 -0.08226668 0 0 Z " fill="#0A0A0A" transform="translate(211,206)"/>
<path d="M0 0 C0.66 0.33 1.32 0.66 2 1 C1 4 1 4 -0.75 5.1875 C-3.29960574 6.10819096 -5.30923081 6.14948718 -8 6 C-5.54080489 3.3651481 -3.42227589 1.25483449 0 0 Z " fill="#525b4a" transform="translate(165,139)"/>
<path d="M0 0 C0.33 1.32 0.66 2.64 1 4 C2.32 4.33 3.64 4.66 5 5 C4.01 5.99 3.02 6.98 2 8 C1.67 7.34 1.34 6.68 1 6 C-1.01669827 4.86649466 -1.01669827 4.86649466 -3 4 C-2.01 2.68 -1.02 1.36 0 0 Z " fill="#DC292A" transform="translate(197,121)"/>
<path d="M0 0 C0.66 0 1.32 0 2 0 C1.85691406 0.53109375 1.71382812 1.0621875 1.56640625 1.609375 C0.8879064 4.47311231 0.41106361 7.34547652 -0.0625 10.25 C-0.23910156 11.32765625 -0.41570312 12.4053125 -0.59765625 13.515625 C-0.73042969 14.33546875 -0.86320312 15.1553125 -1 16 C-1.33 16 -1.66 16 -2 16 C-3.01924246 9.78630501 -3.62926746 5.51648654 0 0 Z " fill="#525b4a" transform="translate(127,117)"/>
<path d="M0 0 C0.66 0 1.32 0 2 0 C3.57077907 5.02649303 4.44854729 9.76119922 5 15 C3 14 3 14 2.1484375 11.6015625 C1.89320313 10.61929688 1.63796875 9.63703125 1.375 8.625 C1.11460937 7.64789063 0.85421875 6.67078125 0.5859375 5.6640625 C0 3 0 3 0 0 Z " fill="#525b4a" transform="translate(188,79)"/>
<path d="M0 0 C-2.52788007 2.79872437 -4.20411134 4.45773019 -8 5 C-8.33 3.68 -8.66 2.36 -9 1 C-5.92677456 0.08941469 -3.19902639 -0.08886184 0 0 Z " fill="#525b4a" transform="translate(275,214)"/>
<path d="M0 0 C0.66 0 1.32 0 2 0 C3.10844919 3.32534757 2.84454356 5.62182575 2 9 C1.67 9 1.34 9 1 9 C1 7.35 1 5.7 1 4 C0.01 4.495 0.01 4.495 -1 5 C-1.65555119 7.52733235 -1.65555119 7.52733235 -2 10 C-2.33 10 -2.66 10 -3 10 C-3.2295711 6.63295715 -3.33943529 4.58629732 -1.625 1.625 C-1.08875 1.08875 -0.5525 0.5525 0 0 Z " fill="#323232" transform="translate(338,207)"/>
<path d="M0 0 C1.1875 1.5625 1.1875 1.5625 2 4 C0.625 7.75 0.625 7.75 -1 11 C-3 8 -3 8 -2.75 6.0625 C-1.97936717 3.94325972 -1.0643413 1.98677042 0 0 Z " fill="#DE3A43" transform="translate(130,116)"/>
<path d="M0 0 C1.3921875 0.0928125 1.3921875 0.0928125 2.8125 0.1875 C2.8125 1.1775 2.8125 2.1675 2.8125 3.1875 C-0.1575 3.1875 -3.1275 3.1875 -6.1875 3.1875 C-3.1875 0.1875 -3.1875 0.1875 0 0 Z " fill="#525b4a" transform="translate(377.1875,204.8125)"/>
<path d="M0 0 C0.33 0.66 0.66 1.32 1 2 C0.195625 2.763125 -0.60875 3.52625 -1.4375 4.3125 C-4.16799024 6.79430898 -4.16799024 6.79430898 -5 10 C-7.0625 11.1875 -7.0625 11.1875 -9 12 C-7.54718935 6.67302761 -3.91888622 3.63597198 0 0 Z " fill="#202020" transform="translate(176,182)"/>
<path d="M0 0 C0.33 0 0.66 0 1 0 C1 1.65 1 3.3 1 5 C0.01 5.33 -0.98 5.66 -2 6 C-2.73323796 8.01508358 -2.73323796 8.01508358 -3 10 C-3.99 9.67 -4.98 9.34 -6 9 C-5.02501855 7.4972763 -4.04490611 5.99788037 -3.0625 4.5 C-2.51722656 3.6646875 -1.97195312 2.829375 -1.41015625 1.96875 C-0.94480469 1.3190625 -0.47945312 0.669375 0 0 Z " fill="#DC3B43" transform="translate(137,106)"/>
<path d="M0 0 C2.31 0 4.62 0 7 0 C7 1.65 7 3.3 7 5 C4.03 4.505 4.03 4.505 1 4 C0.67 2.68 0.34 1.36 0 0 Z " fill="#1D1D1D" transform="translate(295,202)"/>
<path d="M0 0 C1.32 0 2.64 0 4 0 C5.20272819 2.40545638 5.10071472 3.94996953 5.0625 6.625 C5.05347656 7.44226563 5.04445312 8.25953125 5.03515625 9.1015625 C5.02355469 9.72804687 5.01195312 10.35453125 5 11 C4.67 11 4.34 11 4 11 C3.67 8.36 3.34 5.72 3 3 C2.01 3 1.02 3 0 3 C0 2.01 0 1.02 0 0 Z " fill="#474747" transform="translate(247,193)"/>
<path d="M0 0 C1.70884005 1.62339805 3.37446717 3.29319053 5 5 C5 5.66 5 6.32 5 7 C5.66 7.33 6.32 7.66 7 8 C4 8 4 8 1 7 C0.67 4.69 0.34 2.38 0 0 Z " fill="#525b4a" transform="translate(60,106)"/>
<path d="M0 0 C1.75 0.0625 1.75 0.0625 4 1 C5.59501537 3.24164322 6.74543018 5.53566643 8 8 C7.01 8 6.02 8 5 8 C3.61328125 6.50390625 3.61328125 6.50390625 2.3125 4.5625 C1.87550781 3.92441406 1.43851562 3.28632812 0.98828125 2.62890625 C0 1 0 1 0 0 Z " fill="#525b4a" transform="translate(90,48)"/>
<path d="M0 0 C0 3.86695678 -1.41909971 6.5088452 -3 10 C-3.33 10 -3.66 10 -4 10 C-4.33 7.69 -4.66 5.38 -5 3 C-3.35 2.01 -1.7 1.02 0 0 Z " fill="#166D46" transform="translate(63,41)"/>
<path d="M0 0 C0.99 0 1.98 0 3 0 C4.125 3.75 4.125 3.75 3 6 C2.34 6 1.68 6 1 6 C0.67 6.66 0.34 7.32 0 8 C0 5.36 0 2.72 0 0 Z " fill="#070707" transform="translate(247,196)"/>
<path d="M0 0 C2.49415272 0.99766109 3.78740335 1.68616685 5.3125 3.9375 C6 6 6 6 5 9 C4.67 7.68 4.34 6.36 4 5 C3.01 5.33 2.02 5.66 1 6 C0.67 4.02 0.34 2.04 0 0 Z " fill="#1972B2" transform="translate(89,148)"/>
<path d="M0 0 C2.31 0 4.62 0 7 0 C4.57418129 2.42581871 2.92566131 2.96355664 -0.48046875 3.09765625 C-1.37378906 3.08605469 -2.26710937 3.07445312 -3.1875 3.0625 C-4.53908203 3.04896484 -4.53908203 3.04896484 -5.91796875 3.03515625 C-6.60503906 3.02355469 -7.29210937 3.01195312 -8 3 C-8 2.67 -8 2.34 -8 2 C-5.36 2 -2.72 2 0 2 C0 1.34 0 0.68 0 0 Z " fill="#D63E45" transform="translate(146,146)"/>
<path d="M0 0 C3.3125 0.1875 3.3125 0.1875 7 1 C9 3.4375 9 3.4375 10 6 C9.67 6.66 9.34 7.32 9 8 C8.2575 7.236875 7.515 6.47375 6.75 5.6875 C4.5736677 3.5606298 2.47832204 1.7440044 0 0 Z " fill="#525b4a" transform="translate(81,139)"/>
<path d="M0 0 C0.99 0 1.98 0 3 0 C3.33 1.65 3.66 3.3 4 5 C2.68 5 1.36 5 0 5 C-0.5625 3.0625 -0.5625 3.0625 -1 1 C-0.67 0.67 -0.34 0.34 0 0 Z " fill="#191919" transform="translate(207,216)"/>
<path d="M0 0 C0.66 0.33 1.32 0.66 2 1 C0.18182999 3.31459868 -0.75615543 3.95377187 -3.69921875 4.51171875 C-5.17841797 4.59873047 -5.17841797 4.59873047 -6.6875 4.6875 C-8.17830078 4.78611328 -8.17830078 4.78611328 -9.69921875 4.88671875 C-10.45847656 4.92410156 -11.21773438 4.96148437 -12 5 C-12 4.67 -12 4.34 -12 4 C-11.30132812 3.79503906 -10.60265625 3.59007813 -9.8828125 3.37890625 C-8.97273438 3.10949219 -8.06265625 2.84007813 -7.125 2.5625 C-6.22007813 2.29566406 -5.31515625 2.02882813 -4.3828125 1.75390625 C-2.01724619 1.07386174 -2.01724619 1.07386174 0 0 Z " fill="#525b4a" transform="translate(81,110)"/>
<path d="M0 0 C2 1 2 1 3 3 C0.03 4.32 -2.94 5.64 -6 7 C-4.11656068 3.23312136 -3.30867531 2.20578354 0 0 Z " fill="#363636" transform="translate(124,219)"/>
<path d="M0 0 C4.75 0.75 4.75 0.75 7 3 C3.78548731 4.60725635 0.56387464 4.05748185 -3 4 C-3 3.67 -3 3.34 -3 3 C-1.35 3 0.3 3 2 3 C2 2.34 2 1.68 2 1 C1.34 0.67 0.68 0.34 0 0 Z " fill="#393939" transform="translate(316,217)"/>
<path d="M0 0 C0.66 0.33 1.32 0.66 2 1 C1.67 2.65 1.34 4.3 1 6 C-0.32 6 -1.64 6 -3 6 C-2.625 3.5625 -2.625 3.5625 -2 1 C-1.34 0.67 -0.68 0.34 0 0 Z " fill="#525b4a" transform="translate(215,214)"/>
<path d="M0 0 C-2.1875 2.0625 -2.1875 2.0625 -5 4 C-7.8125 3.75 -7.8125 3.75 -10 3 C-3.66666667 -1.22222222 -3.66666667 -1.22222222 0 0 Z " fill="#525b4a" transform="translate(158,146)"/>
<path d="M0 0 C-0.33 0.99 -0.66 1.98 -1 3 C-4.96 3 -8.92 3 -13 3 C-8.29785627 0.64892813 -5.22704461 0 0 0 Z " fill="#525b4a" transform="translate(186,134)"/>
<path d="M0 0 C0 0.66 0 1.32 0 2 C-3.02525676 4.40240978 -4.4125871 5.05541631 -8.3125 4.6875 C-9.199375 4.460625 -10.08625 4.23375 -11 4 C-3.28571429 0 -3.28571429 0 0 0 Z " fill="#525b4a" transform="translate(198,130)"/>
<path d="M0 0 C1.65 0 3.3 0 5 0 C5.33 0.99 5.66 1.98 6 3 C4.68 3 3.36 3 2 3 C1.67 3.66 1.34 4.32 1 5 C0.34 4.67 -0.32 4.34 -1 4 C-0.67 2.68 -0.34 1.36 0 0 Z " fill="#525b4a" transform="translate(22,117)"/>
<path d="M0 0 C0.99 0.495 0.99 0.495 2 1 C2.8125 3.875 2.8125 3.875 3 7 C2.01 7.99 1.02 8.98 0 10 C0 6.7 0 3.4 0 0 Z " fill="#525b4a" transform="translate(206,111)"/>
<path d="M0 0 C0.66 0 1.32 0 2 0 C2.66 3.3 3.32 6.6 4 10 C0.48283697 6.48283697 0.45323837 4.80432667 0 0 Z " fill="#186440" transform="translate(58,59)"/>
<path d="M0 0 C1.65 1.65 3.3 3.3 5 5 C4.34 5.66 3.68 6.32 3 7 C0.525 6.01 0.525 6.01 -2 5 C-1.34 3.35 -0.68 1.7 0 0 Z " fill="#246C47" transform="translate(93,53)"/>
<path d="M0 0 C0.66 0 1.32 0 2 0 C2 2.31 2 4.62 2 7 C1.01 7 0.02 7 -1 7 C-1.04254356 5.00045254 -1.04080783 2.99958364 -1 1 C-0.67 0.67 -0.34 0.34 0 0 Z " fill="#050505" transform="translate(337,211)"/>
<path d="M0 0 C5.75 -0.125 5.75 -0.125 8 1 C8 1.66 8 2.32 8 3 C5.69 3 3.38 3 1 3 C0.67 2.01 0.34 1.02 0 0 Z " fill="#525b4a" transform="translate(269,206)"/>
<path d="M0 0 C0.99 0 1.98 0 3 0 C1.71480435 2.86697492 0.42870746 4.97607712 -2 7 C-2.66 7 -3.32 7 -4 7 C-4 6.01 -4 5.02 -4 4 C-3.01 3.67 -2.02 3.34 -1 3 C-0.67 2.01 -0.34 1.02 0 0 Z " fill="#0A6EAC" transform="translate(85,165)"/>
<path d="M0 0 C0.66 0 1.32 0 2 0 C2 0.99 2 1.98 2 3 C-1.01490557 4.00496852 -3.04181692 4.10335303 -6.1875 4.0625 C-7.53908203 4.04896484 -7.53908203 4.04896484 -8.91796875 4.03515625 C-9.60503906 4.02355469 -10.29210937 4.01195313 -11 4 C-11 3.67 -11 3.34 -11 3 C-10.37351562 2.95101562 -9.74703125 2.90203125 -9.1015625 2.8515625 C-8.28429687 2.77679688 -7.46703125 2.70203125 -6.625 2.625 C-5.81289062 2.55539063 -5.00078125 2.48578125 -4.1640625 2.4140625 C-1.79665809 2.17107412 -1.79665809 2.17107412 0 0 Z " fill="#525b4a" transform="translate(113,105)"/>
<path d="M0 0 C-0.33 0.66 -0.66 1.32 -1 2 C-0.34 2.33 0.32 2.66 1 3 C-0.98 3.33 -2.96 3.66 -5 4 C-5.33 2.68 -5.66 1.36 -6 0 C-2.25 -1.125 -2.25 -1.125 0 0 Z " fill="#242424" transform="translate(200,208)"/>
<path d="M0 0 C1.65 0 3.3 0 5 0 C5 0.66 5 1.32 5 2 C4.34 2 3.68 2 3 2 C2.67 2.99 2.34 3.98 2 5 C1.01 4.01 0.02 3.02 -1 2 C-0.67 1.34 -0.34 0.68 0 0 Z " fill="#525b4a" transform="translate(297,207)"/>
<path d="M0 0 C0.99 0 1.98 0 3 0 C2.67 1.32 2.34 2.64 2 4 C0.35 4.33 -1.3 4.66 -3 5 C-1.125 1.125 -1.125 1.125 0 0 Z " fill="#525b4a" transform="translate(366,175)"/>
<path d="M0 0 C-5.75 4 -5.75 4 -8 4 C-7.1875 2.0625 -7.1875 2.0625 -6 0 C-3 -1 -3 -1 0 0 Z " fill="#D3343E" transform="translate(161,142)"/>
<path d="M0 0 C1.32 0.33 2.64 0.66 4 1 C4 2.65 4 4.3 4 6 C2.68 5.67 1.36 5.34 0 5 C0 3.35 0 1.7 0 0 Z " fill="#F3172C" transform="translate(133,139)"/>
<path d="M0 0 C3 3 3 3 3.1875 6.1875 C3.0946875 7.5796875 3.0946875 7.5796875 3 9 C2.34 9 1.68 9 1 9 C0.67 6.03 0.34 3.06 0 0 Z " fill="#1B1B1B" transform="translate(247,92)"/>
<path d="M0 0 C2.97 1.98 2.97 1.98 6 4 C5.01 5.485 5.01 5.485 4 7 C1 5 1 5 0.3125 2.375 C0.209375 1.59125 0.10625 0.8075 0 0 Z " fill="#1B6642" transform="translate(112,66)"/>
<path d="M0 0 C1.65 0 3.3 0 5 0 C5 0.66 5 1.32 5 2 C5.99 2.33 6.98 2.66 8 3 C7.34 3.66 6.68 4.32 6 5 C3.98079663 3.69593116 1.98075027 2.36176581 0 1 C0 0.67 0 0.34 0 0 Z " fill="#525b4a" transform="translate(97,57)"/>
<path d="M0 0 C-0.375 1.9375 -0.375 1.9375 -1 4 C-1.99 4.495 -1.99 4.495 -3 5 C-3.66 4.34 -4.32 3.68 -5 3 C-5 2.34 -5 1.68 -5 1 C-3 0 -3 0 0 0 Z " fill="#343434" transform="translate(386,214)"/>
<path d="M0 0 C0.66 0.33 1.32 0.66 2 1 C0.25 5.875 0.25 5.875 -2 7 C-2 6.01 -2 5.02 -2 4 C-2.66 3.67 -3.32 3.34 -4 3 C-2.68 2.01 -1.36 1.02 0 0 Z " fill="#212121" transform="translate(301,212)"/>
<path d="M0 0 C0.99 0.33 1.98 0.66 3 1 C2.34 1 1.68 1 1 1 C1 2.65 1 4.3 1 6 C-0.98 6.99 -0.98 6.99 -3 8 C-1.125 2.25 -1.125 2.25 0 0 Z " fill="#525b4a" transform="translate(173,195)"/>
<path d="M0 0 C1.2065625 0.0309375 1.2065625 0.0309375 2.4375 0.0625 C2.0625 2 2.0625 2 1.4375 4.0625 C0.4475 4.5575 0.4475 4.5575 -0.5625 5.0625 C-0.5625 4.0725 -0.5625 3.0825 -0.5625 2.0625 C-1.5525 1.7325 -2.5425 1.4025 -3.5625 1.0625 C-2.5625 0.0625 -2.5625 0.0625 0 0 Z " fill="#1775B0" transform="translate(60.5625,180.9375)"/>
<path d="M0 0 C2.15377564 2.62198774 3.40072174 4.64404172 4 8 C2.68 7.34 1.36 6.68 0 6 C0 4.02 0 2.04 0 0 Z " fill="#525b4a" transform="translate(22,149)"/>
<path d="M0 0 C1.98 0 3.96 0 6 0 C6.33 0.66 6.66 1.32 7 2 C5.02 2.33 3.04 2.66 1 3 C0.67 2.01 0.34 1.02 0 0 Z " fill="#0075CA" transform="translate(64,139)"/>
<path d="M0 0 C1.875 0.25 1.875 0.25 4 1 C5.25 3.0625 5.25 3.0625 6 5 C5.01 5 4.02 5 3 5 C3 4.34 3 3.68 3 3 C2.01 3 1.02 3 0 3 C0 2.01 0 1.02 0 0 Z " fill="#2375B1" transform="translate(38,121)"/>
<path d="M0 0 C1.32 0 2.64 0 4 0 C4 0.99 4 1.98 4 3 C3.01 3 2.02 3 1 3 C1 3.66 1 4.32 1 5 C0.34 5 -0.32 5 -1 5 C-0.67 3.35 -0.34 1.7 0 0 Z " fill="#F91521" transform="translate(196,106)"/>
</svg>
